<svg xmlns="http://www.w3.org/2000/svg" xmlns:xlink="http://www.w3.org/1999/xlink" width="483" zoomAndPan="magnify" viewBox="0 0 363 362.999992" height="483" preserveAspectRatio="xMidYMid meet" version="1.0"><defs><clipPath id="42f1eae9fd"><path d="M 19.074219 124 L 219 124 L 219 204 L 19.074219 204 Z M 19.074219 124 " clip-rule="nonzero"/></clipPath><clipPath id="184e5834c2"><path d="M 20 150 L 225 150 L 225 240.75 L 20 240.75 Z M 20 150 " clip-rule="nonzero"/></clipPath><clipPath id="9a2cce9164"><path d="M 228 75 L 362.574219 75 L 362.574219 178 L 228 178 Z M 228 75 " clip-rule="nonzero"/></clipPath></defs><path fill="#fe8b00" d="M 173.664062 122.816406 C 173.664062 144.230469 158.34375 162.738281 136.09375 171.554688 C 126.652344 175.246094 116.863281 177.074219 106.726562 177.039062 C 83.722656 177.039062 63.402344 167.625 51.351562 153.296875 C 51.351562 153.296875 51.351562 153.296875 51.351562 153.269531 C 44.058594 144.589844 39.800781 134.105469 39.800781 122.816406 C 39.800781 108.976562 46.199219 96.355469 56.722656 86.777344 C 56.492188 87.382812 46.964844 112.1875 64.734375 131.894531 C 59.074219 103.503906 72.78125 91.734375 88.457031 77.074219 C 104.132812 62.414062 59.113281 66.023438 59.316406 40.574219 C 59.316406 40.574219 61.859375 51.65625 84.128906 57.421875 C 106.398438 63.1875 116.128906 66.417969 101.613281 90.058594 C 87.242188 113.496094 99.382812 128.148438 99.621094 128.433594 C 99.46875 128.101562 90.046875 107.191406 110.390625 86.085938 C 130.867188 64.808594 129.964844 58.246094 106.753906 49.492188 C 83.539062 40.742188 118.433594 29.503906 114.539062 0 C 114.539062 0 120.941406 13.214844 113.148438 29.429688 C 103.664062 49.171875 146.351562 45.339844 146.753906 64.828125 C 147.15625 84.320312 112.753906 95.851562 125.078125 123.691406 C 137.402344 151.53125 156.765625 122.296875 146.351562 104 C 146.351562 104 157.09375 114.941406 157.09375 126.472656 C 157.09375 126.472656 164.851562 120.707031 158.480469 106.984375 C 152.113281 93.265625 141.582031 81.730469 158.679688 67.828125 C 158.476562 68.148438 148.070312 84.429688 160.675781 94.867188 C 173.402344 105.394531 173.949219 117.828125 173.664062 122.816406 Z M 173.664062 122.816406 " fill-opacity="1" fill-rule="nonzero"/><path fill="#febf00" d="M 173.664062 122.816406 C 173.664062 144.230469 158.34375 162.738281 136.09375 171.554688 C 170.605469 154.820312 171.230469 123.730469 165.117188 112.96875 C 169.199219 128.308594 162.183594 146.25 155.492188 142.179688 C 151.335938 139.640625 150.453125 135.222656 150.386719 132.230469 C 149.710938 137.183594 146.925781 146.46875 135.664062 148.132812 C 135.664062 148.132812 90.765625 134.871094 120.886719 96.609375 C 151.007812 58.347656 127.707031 54.933594 127.707031 54.933594 C 127.707031 54.933594 145.710938 61.152344 117.851562 91.679688 C 92.171875 119.828125 104.421875 148.539062 114.210938 156.371094 C 66.734375 142.597656 85.394531 97.453125 85.652344 96.824219 C 60.042969 123.417969 77.660156 161.59375 77.660156 161.59375 C 26.625 137.269531 55.144531 89.304688 56.640625 86.867188 C 37.066406 116.539062 40.492188 138.117188 51.332031 153.269531 C 44.039062 144.589844 39.78125 134.105469 39.78125 122.816406 C 39.78125 108.976562 46.179688 96.355469 56.703125 86.777344 C 56.472656 87.382812 46.945312 112.1875 64.714844 131.894531 C 59.054688 103.503906 72.761719 91.734375 88.4375 77.074219 C 104.113281 62.414062 59.113281 66.023438 59.316406 40.574219 C 59.316406 40.574219 61.859375 51.65625 84.128906 57.421875 C 106.398438 63.1875 116.128906 66.417969 101.613281 90.058594 C 87.242188 113.496094 99.382812 128.148438 99.621094 128.433594 C 99.46875 128.101562 90.046875 107.191406 110.390625 86.085938 C 130.867188 64.808594 129.964844 58.246094 106.753906 49.492188 C 83.539062 40.742188 118.433594 29.503906 114.539062 0 C 114.539062 0 120.941406 13.214844 113.148438 29.429688 C 103.664062 49.171875 146.351562 45.339844 146.753906 64.828125 C 147.15625 84.320312 112.753906 95.851562 125.078125 123.691406 C 137.402344 151.53125 156.765625 122.296875 146.351562 104 C 146.351562 104 157.09375 114.941406 157.09375 126.472656 C 157.09375 126.472656 164.851562 120.707031 158.480469 106.984375 C 152.113281 93.265625 141.582031 81.730469 158.679688 67.828125 C 158.476562 68.148438 148.070312 84.429688 160.675781 94.867188 C 173.402344 105.394531 173.949219 117.828125 173.664062 122.816406 Z M 173.664062 122.816406 " fill-opacity="1" fill-rule="nonzero"/><g clip-path="url(#42f1eae9fd)"><path fill="#211b16" d="M 186.203125 124.351562 C 196.792969 126.019531 203.664062 129.597656 205.101562 135.027344 C 208.9375 149.492188 172.765625 171.636719 124.304688 184.488281 C 75.84375 197.335938 33.449219 196.03125 29.609375 181.589844 C 28.171875 176.15625 32.371094 169.644531 40.742188 162.949219 C 25.621094 172.609375 17.390625 182.390625 19.464844 190.199219 C 23.804688 206.582031 71.835938 208.0625 126.691406 193.507812 C 181.550781 178.949219 222.542969 153.859375 218.21875 137.492188 C 216.125 129.707031 204.128906 125.265625 186.203125 124.351562 Z M 186.203125 124.351562 " fill-opacity="1" fill-rule="nonzero"/></g><g clip-path="url(#184e5834c2)"><path fill="#211b16" d="M 149.695312 196.429688 C 143.082031 198.863281 136.246094 201.023438 129.1875 202.90625 C 122.136719 204.78125 115.113281 206.28125 108.140625 207.441406 C 66.425781 215.851562 31.578125 214.691406 20.390625 204.484375 C 36.050781 235.394531 85.746094 249.199219 137.804688 235.394531 C 189.859375 221.59375 226.183594 184.960938 224.46875 150.367188 C 219.820312 164.769531 190.109375 183.058594 149.695312 196.429688 Z M 149.695312 196.429688 " fill-opacity="1" fill-rule="nonzero"/></g><g clip-path="url(#9a2cce9164)"><path fill="#211b16" d="M 228.820312 177.039062 C 228.820312 177.039062 224.523438 150.847656 253.886719 137.125 C 283.246094 123.40625 321.765625 112.035156 336.796875 86.144531 C 351.828125 60.253906 390.941406 87.980469 327.394531 114.75 C 263.851562 141.515625 245.398438 141.8125 228.820312 177.039062 Z M 228.820312 177.039062 " fill-opacity="1" fill-rule="nonzero"/></g></svg>