<svg xmlns="http://www.w3.org/2000/svg" xmlns:xlink="http://www.w3.org/1999/xlink" width="500" zoomAndPan="magnify" viewBox="0 0 375 374.999991" height="500" preserveAspectRatio="xMidYMid meet" version="1.0"><defs><clipPath id="69a6d6fccb"><path d="M 1 163 L 225 163 L 225 262.5 L 1 262.5 Z M 1 163 " clip-rule="nonzero"/></clipPath></defs><path fill="#ed9121" d="M 168.769531 133.910156 C 168.769531 157.257812 152.046875 177.441406 127.753906 187.054688 C 117.449219 191.078125 106.761719 193.070312 95.695312 193.03125 C 70.582031 193.03125 48.398438 182.769531 35.242188 167.148438 C 35.242188 167.148438 35.242188 167.148438 35.242188 167.117188 C 27.28125 157.652344 22.632812 146.222656 22.632812 133.910156 C 22.632812 118.824219 29.617188 105.058594 41.105469 94.617188 C 40.851562 95.277344 30.457031 122.324219 49.851562 143.808594 C 43.675781 112.855469 58.636719 100.023438 75.75 84.039062 C 92.863281 68.054688 43.71875 71.988281 43.9375 44.242188 C 43.9375 44.242188 46.714844 56.324219 71.027344 62.609375 C 95.335938 68.898438 105.960938 72.421875 90.113281 98.195312 C 74.425781 123.75 87.675781 139.726562 87.9375 140.035156 C 87.773438 139.675781 77.484375 116.875 99.691406 93.863281 C 122.046875 70.664062 121.066406 63.507812 95.722656 53.964844 C 70.378906 44.421875 108.476562 32.171875 104.222656 0 C 104.222656 0 111.210938 14.410156 102.707031 32.089844 C 92.351562 53.613281 138.953125 49.433594 139.390625 70.6875 C 139.832031 91.9375 102.273438 104.511719 115.726562 134.867188 C 129.179688 165.222656 150.320312 133.34375 138.953125 113.394531 C 138.953125 113.394531 150.675781 125.324219 150.675781 137.898438 C 150.675781 137.898438 159.144531 131.609375 152.195312 116.652344 C 145.242188 101.691406 133.746094 89.113281 152.410156 73.957031 C 152.1875 74.304688 140.828125 92.058594 154.589844 103.4375 C 168.480469 114.917969 169.078125 128.472656 168.769531 133.910156 Z M 168.769531 133.910156 " fill-opacity="1" fill-rule="nonzero"/><path fill="#febf00" d="M 168.769531 133.910156 C 168.769531 157.257812 152.046875 177.441406 127.753906 187.054688 C 165.429688 168.808594 166.113281 134.910156 159.441406 123.171875 C 163.894531 139.898438 156.234375 159.460938 148.929688 155.023438 C 144.394531 152.257812 143.433594 147.4375 143.355469 144.179688 C 142.621094 149.578125 139.578125 159.703125 127.285156 161.515625 C 127.285156 161.515625 78.269531 147.054688 111.152344 105.335938 C 144.035156 63.621094 118.597656 59.894531 118.597656 59.894531 C 118.597656 59.894531 138.253906 66.675781 107.839844 99.964844 C 79.804688 130.65625 93.179688 161.960938 103.867188 170.5 C 52.035156 155.480469 72.40625 106.253906 72.6875 105.570312 C 44.730469 134.566406 63.960938 176.195312 63.960938 176.195312 C 8.25 149.667969 39.382812 97.375 41.019531 94.71875 C 19.644531 127.070312 23.386719 150.59375 35.222656 167.117188 C 27.261719 157.652344 22.609375 146.222656 22.609375 133.910156 C 22.609375 118.824219 29.59375 105.058594 41.082031 94.617188 C 40.832031 95.277344 30.433594 122.324219 49.828125 143.808594 C 43.652344 112.855469 58.613281 100.023438 75.726562 84.039062 C 92.84375 68.054688 43.71875 71.988281 43.9375 44.242188 C 43.9375 44.242188 46.714844 56.324219 71.027344 62.609375 C 95.335938 68.898438 105.960938 72.421875 90.113281 98.195312 C 74.425781 123.75 87.675781 139.726562 87.9375 140.035156 C 87.773438 139.675781 77.484375 116.875 99.691406 93.863281 C 122.046875 70.664062 121.066406 63.507812 95.722656 53.964844 C 70.378906 44.421875 108.476562 32.171875 104.222656 0 C 104.222656 0 111.210938 14.410156 102.707031 32.089844 C 92.351562 53.613281 138.953125 49.433594 139.390625 70.6875 C 139.832031 91.9375 102.273438 104.511719 115.726562 134.867188 C 129.179688 165.222656 150.320312 133.34375 138.953125 113.394531 C 138.953125 113.394531 150.675781 125.324219 150.675781 137.898438 C 150.675781 137.898438 159.144531 131.609375 152.195312 116.652344 C 145.242188 101.691406 133.746094 89.113281 152.410156 73.957031 C 152.1875 74.304688 140.828125 92.058594 154.589844 103.4375 C 168.480469 114.917969 169.078125 128.472656 168.769531 133.910156 Z M 168.769531 133.910156 " fill-opacity="1" fill-rule="nonzero"/><path fill="#220901" d="M 182.457031 135.585938 C 194.015625 137.40625 201.519531 141.308594 203.089844 147.226562 C 207.277344 162.996094 167.785156 187.144531 114.882812 201.152344 C 61.980469 215.164062 15.695312 213.742188 11.507812 197.996094 C 9.9375 192.070312 14.523438 184.972656 23.660156 177.671875 C 7.152344 188.203125 -1.832031 198.871094 0.429688 207.382812 C 5.171875 225.242188 57.605469 226.859375 117.492188 210.988281 C 177.378906 195.117188 222.125 167.761719 217.410156 149.914062 C 215.121094 141.425781 202.027344 136.585938 182.457031 135.585938 Z M 182.457031 135.585938 " fill-opacity="1" fill-rule="nonzero"/><g clip-path="url(#69a6d6fccb)"><path fill="#220901" d="M 142.605469 214.175781 C 135.382812 216.828125 127.921875 219.183594 120.214844 221.234375 C 112.515625 223.28125 104.847656 224.917969 97.238281 226.183594 C 51.699219 235.351562 13.65625 234.085938 1.441406 222.960938 C 18.539062 256.660156 72.789062 271.710938 129.621094 256.660156 C 186.449219 241.613281 226.101562 201.671875 224.230469 163.949219 C 219.15625 179.65625 186.722656 199.59375 142.605469 214.175781 Z M 142.605469 214.175781 " fill-opacity="1" fill-rule="nonzero"/></g><path fill="#220901" d="M 228.980469 193.03125 C 228.980469 193.03125 224.289062 164.472656 256.34375 149.515625 C 288.398438 134.554688 330.449219 122.160156 346.859375 93.925781 C 363.265625 65.695312 405.964844 95.929688 336.59375 125.117188 C 267.222656 154.300781 247.078125 154.621094 228.980469 193.03125 Z M 228.980469 193.03125 " fill-opacity="1" fill-rule="nonzero"/></svg>