<svg xmlns="http://www.w3.org/2000/svg" xmlns:xlink="http://www.w3.org/1999/xlink" width="483" zoomAndPan="magnify" viewBox="0 0 363 362.999992" height="483" preserveAspectRatio="xMidYMid meet" version="1.0"><defs><g/><clipPath id="788061720b"><path d="M 19.074219 124 L 219 124 L 219 204 L 19.074219 204 Z M 19.074219 124 " clip-rule="nonzero"/></clipPath><clipPath id="48696f6725"><path d="M 20 150 L 225 150 L 225 240.75 L 20 240.75 Z M 20 150 " clip-rule="nonzero"/></clipPath><clipPath id="4990bde512"><path d="M 228 75 L 362.574219 75 L 362.574219 178 L 228 178 Z M 228 75 " clip-rule="nonzero"/></clipPath></defs><path fill="#fe8b00" d="M 173.664062 122.816406 C 173.664062 144.230469 158.34375 162.738281 136.09375 171.554688 C 126.652344 175.246094 116.863281 177.074219 106.726562 177.039062 C 83.722656 177.039062 63.402344 167.625 51.351562 153.296875 C 51.351562 153.296875 51.351562 153.296875 51.351562 153.269531 C 44.058594 144.589844 39.800781 134.105469 39.800781 122.816406 C 39.800781 108.976562 46.199219 96.355469 56.722656 86.777344 C 56.492188 87.382812 46.964844 112.1875 64.734375 131.894531 C 59.074219 103.503906 72.78125 91.734375 88.457031 77.074219 C 104.132812 62.414062 59.113281 66.023438 59.316406 40.574219 C 59.316406 40.574219 61.859375 51.65625 84.128906 57.421875 C 106.398438 63.1875 116.128906 66.417969 101.613281 90.058594 C 87.242188 113.496094 99.382812 128.148438 99.621094 128.433594 C 99.46875 128.101562 90.046875 107.191406 110.390625 86.085938 C 130.867188 64.808594 129.964844 58.246094 106.753906 49.492188 C 83.539062 40.742188 118.433594 29.503906 114.539062 0 C 114.539062 0 120.941406 13.214844 113.148438 29.429688 C 103.664062 49.171875 146.351562 45.339844 146.753906 64.828125 C 147.15625 84.320312 112.753906 95.851562 125.078125 123.691406 C 137.402344 151.53125 156.765625 122.296875 146.351562 104 C 146.351562 104 157.09375 114.941406 157.09375 126.472656 C 157.09375 126.472656 164.851562 120.707031 158.480469 106.984375 C 152.113281 93.265625 141.582031 81.730469 158.679688 67.828125 C 158.476562 68.148438 148.070312 84.429688 160.675781 94.867188 C 173.402344 105.394531 173.949219 117.828125 173.664062 122.816406 Z M 173.664062 122.816406 " fill-opacity="1" fill-rule="nonzero"/><path fill="#febf00" d="M 173.664062 122.816406 C 173.664062 144.230469 158.34375 162.738281 136.09375 171.554688 C 170.605469 154.820312 171.230469 123.730469 165.117188 112.96875 C 169.199219 128.308594 162.183594 146.25 155.492188 142.179688 C 151.335938 139.640625 150.453125 135.222656 150.386719 132.230469 C 149.710938 137.183594 146.925781 146.46875 135.664062 148.132812 C 135.664062 148.132812 90.765625 134.871094 120.886719 96.609375 C 151.007812 58.347656 127.707031 54.933594 127.707031 54.933594 C 127.707031 54.933594 145.710938 61.152344 117.851562 91.679688 C 92.171875 119.828125 104.421875 148.539062 114.210938 156.371094 C 66.734375 142.597656 85.394531 97.453125 85.652344 96.824219 C 60.042969 123.417969 77.660156 161.59375 77.660156 161.59375 C 26.625 137.269531 55.144531 89.304688 56.640625 86.867188 C 37.066406 116.539062 40.492188 138.117188 51.332031 153.269531 C 44.039062 144.589844 39.78125 134.105469 39.78125 122.816406 C 39.78125 108.976562 46.179688 96.355469 56.703125 86.777344 C 56.472656 87.382812 46.945312 112.1875 64.714844 131.894531 C 59.054688 103.503906 72.761719 91.734375 88.4375 77.074219 C 104.113281 62.414062 59.113281 66.023438 59.316406 40.574219 C 59.316406 40.574219 61.859375 51.65625 84.128906 57.421875 C 106.398438 63.1875 116.128906 66.417969 101.613281 90.058594 C 87.242188 113.496094 99.382812 128.148438 99.621094 128.433594 C 99.46875 128.101562 90.046875 107.191406 110.390625 86.085938 C 130.867188 64.808594 129.964844 58.246094 106.753906 49.492188 C 83.539062 40.742188 118.433594 29.503906 114.539062 0 C 114.539062 0 120.941406 13.214844 113.148438 29.429688 C 103.664062 49.171875 146.351562 45.339844 146.753906 64.828125 C 147.15625 84.320312 112.753906 95.851562 125.078125 123.691406 C 137.402344 151.53125 156.765625 122.296875 146.351562 104 C 146.351562 104 157.09375 114.941406 157.09375 126.472656 C 157.09375 126.472656 164.851562 120.707031 158.480469 106.984375 C 152.113281 93.265625 141.582031 81.730469 158.679688 67.828125 C 158.476562 68.148438 148.070312 84.429688 160.675781 94.867188 C 173.402344 105.394531 173.949219 117.828125 173.664062 122.816406 Z M 173.664062 122.816406 " fill-opacity="1" fill-rule="nonzero"/><g clip-path="url(#788061720b)"><path fill="#211b16" d="M 186.203125 124.351562 C 196.792969 126.019531 203.664062 129.597656 205.101562 135.027344 C 208.9375 149.492188 172.765625 171.636719 124.304688 184.488281 C 75.84375 197.335938 33.449219 196.03125 29.609375 181.589844 C 28.171875 176.15625 32.371094 169.644531 40.742188 162.949219 C 25.621094 172.609375 17.390625 182.390625 19.464844 190.199219 C 23.804688 206.582031 71.835938 208.0625 126.691406 193.507812 C 181.550781 178.949219 222.542969 153.859375 218.21875 137.492188 C 216.125 129.707031 204.128906 125.265625 186.203125 124.351562 Z M 186.203125 124.351562 " fill-opacity="1" fill-rule="nonzero"/></g><g clip-path="url(#48696f6725)"><path fill="#211b16" d="M 149.695312 196.429688 C 143.082031 198.863281 136.246094 201.023438 129.1875 202.90625 C 122.136719 204.78125 115.113281 206.28125 108.140625 207.441406 C 66.425781 215.851562 31.578125 214.691406 20.390625 204.484375 C 36.050781 235.394531 85.746094 249.199219 137.804688 235.394531 C 189.859375 221.59375 226.183594 184.960938 224.46875 150.367188 C 219.820312 164.769531 190.109375 183.058594 149.695312 196.429688 Z M 149.695312 196.429688 " fill-opacity="1" fill-rule="nonzero"/></g><g clip-path="url(#4990bde512)"><path fill="#211b16" d="M 228.820312 177.039062 C 228.820312 177.039062 224.523438 150.847656 253.886719 137.125 C 283.246094 123.40625 321.765625 112.035156 336.796875 86.144531 C 351.828125 60.253906 390.941406 87.980469 327.394531 114.75 C 263.851562 141.515625 245.398438 141.8125 228.820312 177.039062 Z M 228.820312 177.039062 " fill-opacity="1" fill-rule="nonzero"/></g><g fill="#211b16" fill-opacity="1"><g transform="translate(55.220419, 286.423832)"><g><path d="M 12.894531 -4.152344 L 6.050781 -4.152344 C 5.917969 -6.757812 5.875 -11.570312 6.050781 -15.5 L 8.964844 -15.5 C 9.9375 -15.5 10.953125 -15.28125 11.484375 -15.148438 C 11.484375 -15.679688 11.484375 -16.695312 11.484375 -17.578125 L 11.484375 -20.007812 C 10.953125 -19.828125 9.9375 -19.609375 8.964844 -19.609375 L 6.050781 -19.609375 C 6.050781 -20.625 5.960938 -20.667969 5.960938 -24.996094 C 5.960938 -28.042969 6.007812 -30.339844 6.050781 -31.222656 L 12.851562 -31.222656 C 13.867188 -31.222656 14.882812 -31.003906 15.367188 -30.828125 C 15.367188 -31.355469 15.367188 -32.371094 15.367188 -33.253906 L 15.367188 -35.683594 C 14.882812 -35.550781 13.867188 -35.332031 12.851562 -35.332031 L 6.402344 -35.332031 C 5.875 -35.332031 4.859375 -35.332031 3.976562 -35.332031 L 1.546875 -35.332031 C 1.722656 -34.84375 1.941406 -33.828125 1.941406 -32.8125 C 1.941406 -31.3125 1.988281 -26.894531 1.988281 -20.183594 C 1.988281 -7.375 1.941406 -2.871094 1.941406 -2.472656 C 1.941406 -1.632812 1.855469 -0.484375 1.679688 0 L 1.8125 0 C 1.941406 0 2.164062 0 2.472656 0 L 12.894531 0 C 13.910156 0 14.925781 0.222656 15.457031 0.351562 C 15.457031 -0.175781 15.457031 -1.191406 15.457031 -2.074219 L 15.457031 -4.503906 C 14.925781 -4.371094 13.910156 -4.152344 12.894531 -4.152344 Z M 12.894531 -4.152344 "/></g></g></g><g fill="#211b16" fill-opacity="1"><g transform="translate(74.475131, 286.423832)"><g><path d="M 12.277344 -3.710938 C 11.835938 -3.664062 9.804688 -3.578125 6.007812 -3.621094 C 5.960938 -6.140625 5.828125 -12.320312 5.828125 -18.285156 C 5.828125 -26.675781 5.960938 -31.488281 6.050781 -32.8125 C 6.050781 -33.828125 6.269531 -34.84375 6.402344 -35.332031 C 5.875 -35.332031 4.859375 -35.332031 3.976562 -35.332031 L 1.546875 -35.332031 C 1.722656 -34.84375 1.941406 -33.828125 1.941406 -32.8125 C 2.03125 -31.710938 2.164062 -27.027344 2.164062 -18.285156 C 2.164062 -4.769531 1.941406 -2.828125 1.941406 -2.472656 C 1.941406 -1.589844 1.855469 -0.484375 1.679688 0 C 2.121094 0 3.046875 0 3.976562 0 L 14.484375 0 C 14.484375 -0.265625 14.484375 -1.015625 14.484375 -1.898438 L 14.484375 -4.019531 C 14.132812 -3.886719 13.292969 -3.710938 12.277344 -3.710938 Z M 12.277344 -3.710938 "/></g></g></g><g fill="#211b16" fill-opacity="1"><g transform="translate(92.758302, 286.423832)"><g/></g></g><g fill="#211b16" fill-opacity="1"><g transform="translate(105.12389, 286.423832)"><g><path d="M 13.074219 -19.960938 C 14.707031 -21.332031 16.03125 -23.539062 16.03125 -26.851562 C 16.03125 -33.917969 10.464844 -35.332031 7.816406 -35.332031 C 5.167969 -35.332031 2.648438 -34.492188 1.722656 -34.136719 C 1.898438 -33.828125 1.941406 -33.519531 1.941406 -33.253906 C 1.988281 -31.886719 2.074219 -27.644531 2.074219 -21.066406 L 2.074219 -19.785156 C 2.074219 -19.609375 2.074219 -19.433594 2.074219 -19.253906 L 2.074219 -16.871094 C 2.074219 -5.210938 1.765625 -1.765625 1.765625 -1.632812 C 1.765625 -1.5 1.722656 -0.882812 1.546875 -0.484375 C 2.472656 -0.0898438 6.933594 -0.0429688 9.582031 -0.0429688 C 12.234375 -0.0429688 18.195312 -1.632812 18.195312 -10.113281 C 18.195312 -16.605469 15.5 -19.078125 13.074219 -19.960938 Z M 5.875 -31.753906 C 6.402344 -32.019531 7.109375 -32.195312 8.214844 -32.0625 C 9.628906 -31.972656 12.320312 -30.78125 12.277344 -26.851562 C 12.277344 -22.832031 10.335938 -20.710938 8.082031 -20.710938 C 7.507812 -20.710938 6.625 -20.710938 5.785156 -20.800781 L 5.785156 -26.453125 C 5.785156 -29.632812 5.828125 -31.355469 5.875 -31.753906 Z M 9.761719 -3.886719 C 8.746094 -3.886719 6.449219 -3.976562 5.875 -4.152344 C 5.828125 -5.609375 5.785156 -8.171875 5.785156 -9.894531 C 5.785156 -13.777344 5.828125 -16.296875 5.875 -17.089844 C 6.800781 -17.269531 8.433594 -17.355469 9.894531 -17.355469 C 11.660156 -17.355469 14.441406 -16.382812 14.441406 -10.113281 C 14.441406 -4.328125 10.730469 -3.886719 9.761719 -3.886719 Z M 9.761719 -3.886719 "/></g></g></g><g fill="#211b16" fill-opacity="1"><g transform="translate(127.204909, 286.423832)"><g><path d="M 17.046875 -32.8125 C 17.046875 -33.785156 17.3125 -34.800781 17.53125 -35.332031 C 17.003906 -35.332031 15.988281 -35.332031 15.105469 -35.332031 L 12.585938 -35.332031 C 12.761719 -34.84375 13.027344 -33.828125 13.027344 -32.8125 C 13.117188 -22.082031 13.203125 -7.640625 13.203125 -7.15625 C 13.203125 -6.140625 12.5 -3.578125 9.140625 -3.445312 C 5.742188 -3.578125 5.078125 -6.140625 5.078125 -7.15625 C 5.078125 -7.640625 5.167969 -22.082031 5.253906 -32.8125 C 5.253906 -33.785156 5.476562 -34.800781 5.652344 -35.332031 C 5.121094 -35.332031 4.0625 -35.332031 3.179688 -35.332031 L 0.75 -35.332031 C 0.925781 -34.84375 1.191406 -33.828125 1.191406 -32.8125 L 1.191406 -7.15625 C 1.191406 -5.121094 1.941406 -1.414062 6.007812 -0.132812 C 6.09375 -0.0898438 6.226562 -0.0429688 6.316406 -0.0429688 C 6.359375 -0.0429688 6.359375 0 6.402344 0 C 7.15625 0.222656 8.039062 0.308594 9.054688 0.308594 L 9.1875 0.308594 C 10.203125 0.308594 11.085938 0.222656 11.878906 0 C 11.878906 0 11.925781 -0.0429688 11.96875 -0.0429688 C 12.058594 -0.0429688 12.144531 -0.0898438 12.277344 -0.132812 C 16.296875 -1.414062 17.089844 -5.121094 17.089844 -7.15625 Z M 17.046875 -32.8125 "/></g></g></g><g fill="#211b16" fill-opacity="1"><g transform="translate(148.535194, 286.423832)"><g><path d="M 12.894531 -4.152344 L 6.050781 -4.152344 C 5.917969 -6.757812 5.875 -11.570312 6.050781 -15.5 L 8.964844 -15.5 C 9.9375 -15.5 10.953125 -15.28125 11.484375 -15.148438 C 11.484375 -15.679688 11.484375 -16.695312 11.484375 -17.578125 L 11.484375 -20.007812 C 10.953125 -19.828125 9.9375 -19.609375 8.964844 -19.609375 L 6.050781 -19.609375 C 6.050781 -20.625 5.960938 -20.667969 5.960938 -24.996094 C 5.960938 -28.042969 6.007812 -30.339844 6.050781 -31.222656 L 12.851562 -31.222656 C 13.867188 -31.222656 14.882812 -31.003906 15.367188 -30.828125 C 15.367188 -31.355469 15.367188 -32.371094 15.367188 -33.253906 L 15.367188 -35.683594 C 14.882812 -35.550781 13.867188 -35.332031 12.851562 -35.332031 L 6.402344 -35.332031 C 5.875 -35.332031 4.859375 -35.332031 3.976562 -35.332031 L 1.546875 -35.332031 C 1.722656 -34.84375 1.941406 -33.828125 1.941406 -32.8125 C 1.941406 -31.3125 1.988281 -26.894531 1.988281 -20.183594 C 1.988281 -7.375 1.941406 -2.871094 1.941406 -2.472656 C 1.941406 -1.632812 1.855469 -0.484375 1.679688 0 L 1.8125 0 C 1.941406 0 2.164062 0 2.472656 0 L 12.894531 0 C 13.910156 0 14.925781 0.222656 15.457031 0.351562 C 15.457031 -0.175781 15.457031 -1.191406 15.457031 -2.074219 L 15.457031 -4.503906 C 14.925781 -4.371094 13.910156 -4.152344 12.894531 -4.152344 Z M 12.894531 -4.152344 "/></g></g></g><g fill="#211b16" fill-opacity="1"><g transform="translate(167.789903, 286.423832)"><g><path d="M 18.238281 -18.285156 C 18.238281 -26.675781 18.328125 -31.488281 18.417969 -32.8125 C 18.417969 -33.785156 18.636719 -34.800781 18.769531 -35.332031 C 18.238281 -35.332031 17.222656 -35.332031 16.339844 -35.332031 L 13.910156 -35.332031 C 14.089844 -34.84375 14.308594 -33.828125 14.308594 -32.8125 C 14.398438 -31.710938 14.53125 -27.027344 14.53125 -18.285156 C 14.53125 -14.882812 14.53125 -12.101562 14.484375 -9.804688 L 6.402344 -35.332031 L 3.976562 -35.332031 C 3.53125 -35.332031 3.089844 -35.332031 2.695312 -35.332031 L 1.546875 -35.332031 C 1.722656 -34.84375 1.941406 -33.828125 1.941406 -32.8125 C 2.03125 -31.710938 2.164062 -27.027344 2.164062 -18.285156 C 2.164062 -4.769531 1.941406 -2.828125 1.941406 -2.472656 C 1.941406 -1.589844 1.855469 -0.484375 1.679688 0 C 2.121094 0 3.046875 0 3.976562 0 L 6.269531 0 C 6.09375 -0.484375 6.050781 -1.589844 6.050781 -2.472656 C 6.050781 -2.648438 5.828125 -10.644531 5.828125 -18.285156 C 5.828125 -21.109375 5.875 -23.449219 5.875 -25.351562 L 13.910156 0 L 18.636719 0 C 18.460938 -0.484375 18.417969 -1.589844 18.417969 -2.472656 C 18.417969 -2.648438 18.238281 -10.644531 18.238281 -18.285156 Z M 18.238281 -18.285156 "/></g></g></g><g fill="#fe8b00" fill-opacity="1"><g transform="translate(32.302098, 346.934133)"><g><path d="M 10.546875 0.425781 C 17.277344 0.425781 21.253906 -4.1875 21.253906 -11.976562 C 21.253906 -19.875 14.046875 -24.378906 9.222656 -27.347656 C 6.308594 -29.152344 5.722656 -31.113281 5.722656 -33.496094 C 5.722656 -36.304688 7.738281 -38.214844 10.757812 -38.214844 C 14.257812 -38.214844 15.792969 -36.890625 16.007812 -33.601562 L 20.617188 -33.921875 C 20.246094 -39.644531 16.75 -42.824219 10.757812 -42.824219 C 5.195312 -42.824219 1.113281 -38.902344 1.113281 -33.496094 C 1.113281 -29.046875 2.914062 -25.863281 6.785156 -23.425781 C 11.976562 -20.195312 16.695312 -16.90625 16.695312 -11.976562 C 16.695312 -4.1875 12.03125 -4.1875 10.546875 -4.1875 C 6.09375 -4.1875 5.511719 -9.433594 5.460938 -9.644531 L 0.902344 -9.167969 C 0.953125 -8.425781 1.324219 -5.832031 3.019531 -3.445312 C 4.824219 -0.902344 7.421875 0.425781 10.546875 0.425781 Z M 10.546875 0.425781 "/></g></g></g><g fill="#fe8b00" fill-opacity="1"><g transform="translate(70.410299, 346.934133)"><g><path d="M 20.722656 0 C 20.511719 -0.210938 20.40625 -0.582031 20.40625 -0.796875 C 17.542969 -13.460938 15 -27.984375 13.304688 -40.917969 C 13.25 -41.394531 13.089844 -42.082031 13.355469 -42.402344 L 13.25 -42.402344 C 11.765625 -42.402344 8.957031 -42.402344 8.375 -42.402344 L 8.269531 -42.402344 C 8.535156 -42.082031 8.375 -41.394531 8.320312 -40.917969 C 6.625 -27.984375 4.082031 -13.460938 1.21875 -0.796875 C 1.167969 -0.582031 1.113281 -0.210938 0.902344 0 L 5.9375 0 C 5.777344 -0.371094 5.882812 -1.007812 5.9375 -1.324219 C 6.519531 -4.980469 7.3125 -10.175781 8.320312 -16.164062 C 9.804688 -16.058594 11.5 -16.007812 13.304688 -16.164062 C 14.308594 -10.175781 15.105469 -4.980469 15.636719 -1.324219 C 15.6875 -1.007812 15.792969 -0.371094 15.6875 0 Z M 9.0625 -20.566406 C 9.59375 -23.640625 10.175781 -26.820312 10.8125 -30.15625 C 11.449219 -26.871094 11.976562 -23.640625 12.507812 -20.617188 C 11.394531 -20.457031 10.230469 -20.457031 9.0625 -20.566406 Z M 9.0625 -20.566406 "/></g></g></g><g fill="#fe8b00" fill-opacity="1"><g transform="translate(107.988492, 346.934133)"><g><path d="M 15.6875 -23.957031 C 17.648438 -25.601562 19.238281 -28.25 19.238281 -32.226562 C 19.238281 -40.707031 12.5625 -42.402344 9.382812 -42.402344 C 6.203125 -42.402344 3.179688 -41.394531 2.066406 -40.96875 C 2.277344 -40.597656 2.332031 -40.226562 2.332031 -39.910156 C 2.386719 -38.265625 2.492188 -33.179688 2.492188 -25.28125 L 2.492188 -23.746094 C 2.492188 -23.53125 2.492188 -23.320312 2.492188 -23.109375 L 2.492188 -20.246094 C 2.492188 -6.253906 2.121094 -2.121094 2.121094 -1.960938 C 2.121094 -1.800781 2.066406 -1.058594 1.855469 -0.582031 C 2.96875 -0.105469 8.320312 -0.0546875 11.5 -0.0546875 C 14.679688 -0.0546875 21.835938 -1.960938 21.835938 -12.136719 C 21.835938 -19.929688 18.605469 -22.898438 15.6875 -23.957031 Z M 7.050781 -38.109375 C 7.683594 -38.425781 8.535156 -38.636719 9.859375 -38.480469 C 11.554688 -38.375 14.789062 -36.941406 14.734375 -32.226562 C 14.734375 -27.402344 12.402344 -24.859375 9.699219 -24.859375 C 9.011719 -24.859375 7.949219 -24.859375 6.941406 -24.964844 L 6.941406 -31.746094 C 6.941406 -35.5625 6.996094 -37.632812 7.050781 -38.109375 Z M 11.714844 -4.664062 C 10.496094 -4.664062 7.738281 -4.769531 7.050781 -4.980469 C 6.996094 -6.730469 6.941406 -9.804688 6.941406 -11.871094 C 6.941406 -16.535156 6.996094 -19.558594 7.050781 -20.511719 C 8.164062 -20.722656 10.125 -20.828125 11.871094 -20.828125 C 13.992188 -20.828125 17.332031 -19.664062 17.332031 -12.136719 C 17.332031 -5.195312 12.878906 -4.664062 11.714844 -4.664062 Z M 11.714844 -4.664062 "/></g></g></g><g fill="#fe8b00" fill-opacity="1"><g transform="translate(146.785722, 346.934133)"><g><path d="M 11.605469 0.210938 C 18.761719 0.210938 22.3125 -5.351562 22.3125 -21.199219 C 22.3125 -37.046875 18.761719 -42.613281 11.605469 -42.613281 C 4.453125 -42.613281 0.902344 -37.046875 0.902344 -21.199219 C 0.902344 -5.351562 4.453125 0.210938 11.605469 0.210938 Z M 11.605469 -4.132812 C 6.835938 -4.132812 5.246094 -10.496094 5.246094 -21.199219 C 5.246094 -31.90625 6.835938 -38.265625 11.605469 -38.265625 C 16.378906 -38.265625 17.96875 -31.90625 17.96875 -21.199219 C 17.96875 -10.496094 16.378906 -4.132812 11.605469 -4.132812 Z M 11.605469 -4.132812 "/></g></g></g><g fill="#fe8b00" fill-opacity="1"><g transform="translate(185.953962, 346.934133)"><g><path d="M 24.117188 0 C 23.746094 -0.210938 23.585938 -0.425781 23.585938 -0.6875 C 21.941406 -9.117188 20.671875 -12.507812 17.648438 -17.171875 C 20.351562 -19.027344 22.84375 -22.738281 22.84375 -29.734375 C 22.84375 -41.765625 14.734375 -42.824219 11.128906 -42.824219 C 7.949219 -42.824219 3.019531 -42.613281 1.90625 -42.082031 C 2.121094 -41.605469 2.171875 -41.128906 2.171875 -40.707031 C 2.332031 -38.214844 2.542969 -31.007812 2.542969 -20.511719 C 2.542969 -7.472656 2.171875 -3.445312 2.171875 -2.96875 C 2.121094 -1.90625 2.066406 -0.582031 1.855469 0 L 7.527344 0 C 7.367188 -0.582031 7.15625 -1.800781 7.101562 -3.019531 C 6.996094 -6.203125 6.941406 -14.945312 7.101562 -16.058594 C 8.003906 -15.742188 10.28125 -15.371094 12.457031 -15.371094 L 12.878906 -15.371094 C 16.21875 -10.757812 18.234375 -4.980469 18.234375 -0.582031 C 18.234375 -0.476562 18.179688 -0.210938 17.96875 0 Z M 6.941406 -29.097656 C 6.941406 -34.1875 7.050781 -36.78125 7.101562 -37.3125 C 7.683594 -37.738281 9.804688 -37.84375 10.972656 -37.84375 C 12.933594 -37.84375 17.753906 -38.003906 17.753906 -29.679688 C 17.753906 -21.359375 14.046875 -20.140625 11.925781 -20.140625 C 10.175781 -20.140625 8.214844 -20.40625 7.101562 -20.988281 C 7.050781 -21.625 6.941406 -24.273438 6.941406 -29.097656 Z M 6.941406 -29.097656 "/></g></g></g></svg>